<?xml version="1.0" encoding="UTF-8" standalone="no"?>
<!-- Generator: Adobe Illustrator 19.2.1, SVG Export Plug-In . SVG Version: 6.00 Build 0)  -->

<svg
   version="1.1"
   id="Layer_1"
   x="0px"
   y="0px"
   viewBox="0 0 1116.5668 93.999997"
   xml:space="preserve"
   width="1116.5668"
   height="94"
   xmlns="http://www.w3.org/2000/svg"
   xmlns:svg="http://www.w3.org/2000/svg"><defs
   id="defs40815" />
<style
   type="text/css"
   id="style40780">
	.st0{fill:#0075A8;}
	.st1{fill:#f8f8f8;}
	.st2{fill:#CCCCCC;}
	.st3{fill:#B3B3B3;}
	.st4{fill:#FFFFFF;}
</style>
<g
   id="g40810"
   transform="translate(-0.78615612)">
	<g
   id="g40786">
		<path
   class="st0"
   d="m 200.7,20.6 -2.2,-13 C 197.8,3.4 196.2,0 194.9,0 c -1.3,0 -2.4,3.5 -2.4,7.7 v 3.4 c 0,4.2 -3.5,7.7 -7.7,7.7 h -3.4 c -0.2,0 -0.5,0 -0.7,0 v 9.4 c 0.2,0 0.5,0 0.7,0 h 12.8 c 4.3,0 7.2,-3.4 6.5,-7.6"
   id="path40782" />
		<path
   class="st0"
   d="m 170,9.6 h -20.8 c -0.2,0 -0.3,0 -0.5,0 h -21.3 c -0.3,0 -0.5,0 -0.7,0.1 v -2 c 0,-4.2 -1.1,-7.7 -2.4,-7.7 -1.3,0 -2.9,3.4 -3.6,7.6 l -2.2,13 c -0.7,4.2 2.2,7.6 6.4,7.6 h 12.8 c 1.3,0 2.6,-0.2 3.6,-0.6 -0.4,2.2 -2.3,3.8 -4.6,3.8 h -18 c -2.9,0 -5.1,-2.6 -4.6,-5.5 L 115.9,15 c 0.5,-2.9 -1.7,-5.5 -4.6,-5.5 H 22.1 c -1.9,0 -3.5,1.1 -4.3,2.8 L 1,38 c -0.3,0.4 -0.3,1 0.1,1.4 l 3.3,3.9 c 0.4,0.5 1.1,0.6 1.6,0.2 l 11.4,-9 v 54.8 c 0,2.6 2.1,4.7 4.7,4.7 h 25.4 c 2.6,0 4.7,-2.1 4.7,-4.7 v -19 c 0,-2.6 2.1,-4.7 4.7,-4.7 h 63.3 c 2.6,0 4.7,2.1 4.7,4.7 v 19 c 0,2.6 2.1,4.7 4.7,4.7 H 155 c 2.6,0 4.7,-2.1 4.7,-4.7 V 68.6 h -13.5 c -4.2,0 -7.7,-3.5 -7.7,-7.7 V 47.8 c 0,-2.5 1.2,-4.7 3.1,-6.1 v 15.7 c 0,4.2 3.5,7.7 7.7,7.7 H 170 c 4.2,0 7.7,-3.5 7.7,-7.7 v -40 c 0,-4.3 -3.5,-7.8 -7.7,-7.8"
   id="path40784" />
	</g>
	<g
   id="g40808">
		<g
   id="g40802">
			<path
   class="st1"
   d="m 217.7,12.2 h 28.6 c 13.6,0 22.7,6.6 22.7,19.3 0,10.4 -7.1,16.6 -14,18.8 2.1,1.7 3.6,4.1 4.8,6.6 2.9,5.9 4.8,12.3 10.9,12.3 1.5,0 2.8,-0.5 2.8,-0.5 L 272.1,81 c 0,0 -3.7,0.9 -6.9,0.9 -8.2,0 -12.9,-3.2 -17.8,-14.2 -2.1,-4.9 -4.9,-13.6 -8.7,-13.6 h -3.9 V 81.5 H 217.6 V 12.2 Z m 17.2,12.5 v 17 h 6.2 c 4.9,0 10.7,-1.5 10.7,-8.9 0,-6.1 -3.9,-8.1 -8.6,-8.1 z"
   id="path40788" />
			<path
   class="st1"
   d="m 292.2,12.2 h 17.4 L 333,81.5 h -17.4 l -4.3,-13.1 h -23.2 l -4.2,13.1 h -15 z m 0,43.5 h 14.9 L 302.4,41.1 C 300.8,36.2 300,29.2 300,29.2 h -0.4 c 0,0 -1,7.1 -2.6,11.8 z"
   id="path40790" />
			<path
   class="st1"
   d="M 333.6,12.2 H 352 l 18.2,34.4 c 1.5,3 3.6,8.2 5.2,12.3 h 0.4 C 375.6,55 375.1,49.5 375.1,45.4 V 12.2 h 14.1 v 69.3 h -18 L 352.3,47.2 c -1.7,-3.1 -3.6,-7.6 -5,-11.3 h -0.4 c 0.3,3.9 0.8,8.5 0.8,12.3 v 33.3 h -14.1 z"
   id="path40792" />
			<path
   class="st1"
   d="m 392.9,46.5 c 0,-25.1 12.4,-35.4 31.6,-35.4 20.2,0 28.3,11.1 26.1,26.1 l -16,1.4 c 1.7,-11 -2.6,-15.4 -10.4,-15.4 -7.5,0 -13.6,5.5 -13.6,23.4 0,18.9 6.6,23.7 14.1,23.7 7.1,0 12.8,-4.4 11.6,-13.5 l 15,1.5 c 1.1,14.1 -9,24.4 -27.5,24.4 -18.8,0.1 -30.9,-11 -30.9,-36.2"
   id="path40794" />
			<path
   id="polygon40796"
   class="st1"
   style="fill:#f8f8f8"
   d="m 493,12.2 h 17.2 V 81.6 H 493 V 52.2 H 472 V 81.6 H 454.8 V 12.2 H 472 v 26.2 h 21 z" />
			<path
   id="polygon40798"
   class="st1"
   style="fill:#f8f8f8"
   d="m 534.2,39.9 h 24.1 V 52.6 H 534.2 V 68.8 H 564 V 81.6 H 517.1 V 12.2 H 563 V 25 h -28.8 z" />
			<path
   class="st1"
   d="m 567.3,12.2 h 28.6 c 13.6,0 22.7,6.6 22.7,19.3 0,10.4 -7.1,16.6 -14,18.8 2.1,1.7 3.6,4.1 4.8,6.6 2.9,5.9 4.8,12.3 10.9,12.3 1.5,0 2.8,-0.5 2.8,-0.5 L 621.7,81 c 0,0 -3.7,0.9 -6.9,0.9 -8.2,0 -12.9,-3.2 -17.8,-14.2 -2.1,-4.9 -4.9,-13.6 -8.7,-13.6 h -3.9 V 81.5 H 567.2 V 12.2 Z m 17.1,12.5 v 17 h 6.2 c 4.9,0 10.7,-1.5 10.7,-8.9 0,-6.1 -3.9,-8.1 -8.6,-8.1 z"
   id="path40800" />
		</g>
		<g
   id="g40806">
			<path
   class="st1"
   d="m 625.2,16.6 c 0,-3.9 2.9,-5.6 5.6,-5.6 2.7,0 5.6,1.7 5.6,5.6 0,3.8 -2.9,5.5 -5.6,5.5 -2.6,0.1 -5.6,-1.6 -5.6,-5.5 z m 9.9,0 c 0,-3.1 -2,-4.4 -4.2,-4.4 -2.2,0 -4.3,1.3 -4.3,4.4 0,3 2.1,4.4 4.3,4.4 2.2,0 4.2,-1.3 4.2,-4.4 z M 629,13.8 h 2 c 1,0 2,0.3 2,1.7 0,0.8 -0.6,1.3 -1.3,1.5 l 1.3,2.3 h -1.2 l -1.2,-2.2 h -0.5 v 2.2 H 629 Z m 2.1,2.5 c 0.5,0 0.9,-0.3 0.9,-0.8 0,-0.6 -0.5,-0.7 -0.9,-0.7 h -1 v 1.5 z"
   id="path40804" />
		</g>
	</g>
</g>
<g
   aria-label="CARBIDE"
   id="text40819"
   style="font-size:108.055px;font-family:Nasalization;-inkscape-font-specification:Nasalization;opacity:0.738462;fill:#f8f8f8;stroke-width:0.562786"><path
     d="m 665.22168,11.079766 c -21.17878,0 -32.95677,11.994105 -32.95677,36.52259 0,24.42043 11.66994,36.414535 32.95677,36.414535 h 28.20236 v -12.75049 h -28.20236 c -14.1552,0 -20.20628,-7.023575 -20.20628,-23.664045 0,-16.748525 6.15913,-23.7721 20.20628,-23.7721 h 28.20236 v -12.75049 z"
     id="path41371" /><path
     d="m 739.02317,25.343026 c 0.75638,-1.72888 1.94499,-2.485265 3.67387,-2.485265 1.72888,0 2.91748,0.756385 3.56581,2.485265 l 22.15128,58.673865 h 14.1552 l -24.63654,-64.833 c -2.59332,-6.807465 -7.56385,-9.4007847 -15.1277,-9.4007847 -7.6719,0 -12.64243,2.5933197 -15.34381,9.4007847 l -25.60903,64.833 h 14.04715 z"
     style="fill:#ff0000"
     id="path41373" /><path
     d="m 793.15856,11.079766 v 12.75049 h 39.98035 c 7.02358,0 10.15717,4.430255 10.15717,9.616895 0,5.18664 -2.91748,10.15717 -10.15717,10.15717 h -28.41846 c -7.99607,0 -11.45383,3.349705 -11.45383,11.561885 v 28.850685 h 12.75049 v -26.36542 c 0,-1.29666 0.64833,-1.836935 1.83693,-1.836935 h 19.01768 l 16.64047,28.202355 h 14.15521 l -16.96464,-29.17485 c 11.12967,-3.133595 15.45187,-12.858545 15.45187,-21.935165 0,-11.66994 -7.02358,-21.82711 -23.44794,-21.82711 z"
     id="path41375" /><path
     d="m 876.57689,11.079766 c -4.10609,0 -6.05108,1.94499 -6.05108,5.943025 v 61.051075 c 0,3.998035 1.94499,5.943025 6.05108,5.943025 h 32.4165 c 17.18074,0 24.42043,-8.42829 24.42043,-20.09823 0,-8.42829 -3.88998,-13.83104 -10.8055,-16.64047 6.80746,-2.701375 10.48133,-7.77996 10.48133,-16.20825 0,-11.88605 -7.23968,-19.990175 -24.42043,-19.990175 z m 6.4833,41.385065 h 26.25736 c 7.4558,0 11.23772,3.24165 11.23772,9.400785 0,5.943025 -3.56581,9.50884 -11.23772,9.50884 H 884.4649 c -0.86444,0 -1.40471,-0.324165 -1.40471,-1.188605 z m 0,-27.554025 c 0,-0.86444 0.54027,-1.29666 1.40471,-1.29666 h 24.63654 c 7.77996,0 11.12967,3.781925 11.12967,9.50884 0,5.943025 -3.67387,8.752455 -11.23772,8.752455 h -25.9332 z"
     id="path41377" /><path
     d="m 948.21732,11.079766 v 72.937125 h 12.75049 V 11.079766 Z"
     id="path41379" /><path
     d="m 984.63168,11.079766 c -4.10609,0 -6.05108,1.94499 -6.05108,5.943025 v 61.051075 c 0,3.998035 1.94499,5.943025 6.05108,5.943025 h 25.71712 c 21.3949,0 32.8487,-11.88605 32.8487,-36.414535 0,-24.63654 -11.5619,-36.52259 -32.8487,-36.52259 z m 6.69941,14.04715 c 0,-0.972495 0.43222,-1.29666 1.40472,-1.29666 h 17.61299 c 14.1552,0 20.0982,7.023575 20.0982,23.664045 0,16.748525 -5.943,23.7721 -20.0982,23.7721 h -17.61299 c -0.9725,0 -1.40472,-0.324165 -1.40472,-1.29666 z"
     id="path41381" /><path
     d="m 1079.9361,11.079766 c -17.1807,0 -24.4204,8.21218 -24.4204,19.88212 0,7.99607 3.4578,13.61493 10.2652,16.42436 -6.6994,2.80943 -10.4813,8.42829 -10.4813,16.748525 0,11.345775 7.0236,19.88212 24.3124,19.88212 h 36.9548 v -12.75049 h -36.9548 c -7.4558,0 -11.0216,-3.45776 -11.0216,-9.184675 0,-5.943025 3.7819,-8.86051 11.1296,-8.86051 h 36.1984 V 41.659331 h -35.8742 c -7.3478,0 -11.1297,-2.701375 -11.1297,-8.6444 0,-5.61886 3.3497,-9.184675 11.0216,-9.184675 h 36.5226 v -12.75049 z"
     id="path41383" /></g></svg>
