<?xml version="1.0" encoding="UTF-8" standalone="no"?>
<!-- Created with Inkscape (http://www.inkscape.org/) -->

<svg
   width="112.50978"
   height="21.436678"
   viewBox="0 0 29.768213 5.6717878"
   version="1.1"
   id="svg28582"
   inkscape:version="1.4 (e7c3feb1, 2024-10-09)"
   sodipodi:docname="rancher-logo.d773077a.svg"
   inkscape:export-filename="test1.svg"
   inkscape:export-xdpi="96"
   inkscape:export-ydpi="96"
   xml:space="preserve"
   xmlns:inkscape="http://www.inkscape.org/namespaces/inkscape"
   xmlns:sodipodi="http://sodipodi.sourceforge.net/DTD/sodipodi-0.dtd"
   xmlns="http://www.w3.org/2000/svg"
   xmlns:svg="http://www.w3.org/2000/svg"><sodipodi:namedview
     id="namedview28584"
     pagecolor="#878787"
     bordercolor="#666666"
     borderopacity="1.0"
     inkscape:showpageshadow="2"
     inkscape:pageopacity="0"
     inkscape:pagecheckerboard="0"
     inkscape:deskcolor="#d1d1d1"
     inkscape:document-units="mm"
     showgrid="false"
     inkscape:zoom="2.9956461"
     inkscape:cx="-58.918841"
     inkscape:cy="43.396314"
     inkscape:window-width="1920"
     inkscape:window-height="1147"
     inkscape:window-x="1920"
     inkscape:window-y="25"
     inkscape:window-maximized="0"
     inkscape:current-layer="layer1"><inkscape:page
       x="0"
       y="0"
       width="29.768213"
       height="5.6717877"
       id="page2"
       margin="0"
       bleed="0" /></sodipodi:namedview><defs
     id="defs28579" /><g
     inkscape:label="Layer 1"
     inkscape:groupmode="layer"
     id="layer1"
     transform="translate(-44.880671,-76.679797)"><path
       d="m 57.547455,76.84125 h 1.205246 c 0.57252,0 0.958049,0.260545 0.958049,0.763627 0,0.410629 -0.298431,0.657966 -0.589172,0.743214 0.0871,0.06963 0.151131,0.162091 0.203643,0.260545 0.12168,0.231729 0.203652,0.487472 0.459815,0.487472 0.06531,0 0.116552,-0.02042 0.116552,-0.02042 l -0.05636,0.48387 c 0,0 -0.156257,0.03602 -0.290743,0.03602 -0.347098,0 -0.545628,-0.126082 -0.749279,-0.560712 -0.0871,-0.194508 -0.207484,-0.536697 -0.368872,-0.536697 h -0.165229 v 1.084198 h -0.723657 v -2.741129 m 0.723657,0.491073 v 0.674778 h 0.260008 c 0.20749,0 0.450845,-0.06122 0.450845,-0.352996 0,-0.240136 -0.165223,-0.320581 -0.363753,-0.320581 h -0.3471 z"
       id="path31128"
       style="fill:#000000;stroke-width:0.124009" /><path
       d="m 60.68801,76.84125 h 0.732626 l 0.987506,2.742329 h -0.732625 l -0.181873,-0.519888 h -0.979823 l -0.178034,0.519888 H 59.703062 L 60.68801,76.84125 m 0,1.718158 h 0.628875 l -0.199804,-0.576321 c -0.06919,-0.194508 -0.0999,-0.470663 -0.0999,-0.470663 h -0.01793 c 0,0 -0.04354,0.279757 -0.108862,0.467062 z"
       id="path31130"
       style="fill:#000000;stroke-width:0.124009" /><path
       d="m 62.438879,76.84125 h 0.776178 l 0.767206,1.360358 c 0.06531,0.117671 0.151132,0.325384 0.221582,0.487472 h 0.01791 c -0.0088,-0.154886 -0.03073,-0.373408 -0.03073,-0.531895 V 76.84125 h 0.593015 v 2.742329 H 64.025789 L 63.22912,78.226823 c -0.07428,-0.122463 -0.151131,-0.300168 -0.212617,-0.44665 h -0.01791 c 0.01282,0.154888 0.03456,0.337389 0.03456,0.487471 v 1.315935 H 62.438851 V 76.84125"
       id="path31132"
       style="fill:#000000;stroke-width:0.124009" /><path
       d="m 64.937748,78.193206 c 0,-0.990555 0.523858,-1.401183 1.334608,-1.401183 0.853028,0 1.196282,0.438243 1.10022,1.031375 l -0.676268,0.05643 c 0.07428,-0.434642 -0.108845,-0.608738 -0.438037,-0.608738 -0.31636,0 -0.572524,0.219721 -0.572524,0.925715 0,0.748017 0.277938,0.938923 0.593017,0.938923 0.298428,0 0.541785,-0.175296 0.48927,-0.531896 l 0.632725,0.06124 c 0.04738,0.555912 -0.381686,0.96654 -1.161702,0.96654 -0.78898,0 -1.301309,-0.438246 -1.301309,-1.438402"
       id="path31134"
       style="fill:#000000;stroke-width:0.124009" /><polyline
       points="172.5,26.84 178.15,26.84 178.15,35.47 185.09,35.47 185.09,26.84 190.74,26.84 190.74,49.68 185.09,49.68    185.09,40 178.15,40 178.15,49.68 172.5,49.68 172.5,26.84  "
       id="polyline31136"
       transform="matrix(0.12808142,0,0,0.12006696,45.456565,73.61865)"
       style="fill:#000000" /><polyline
       points="193,26.84 208.12,26.84 208.12,31.03 198.65,31.03 198.65,35.94 206.6,35.94 206.6,40.13 198.65,40.13    198.65,45.48 208.46,45.48 208.46,49.68 193,49.68 193,26.84  "
       id="polyline31138"
       transform="matrix(0.12808142,0,0,0.12006696,45.456565,73.61865)"
       style="fill:#000000" /><path
       d="m 72.29475,76.84125 h 1.205242 c 0.572529,0 0.958052,0.260545 0.958052,0.763627 0,0.410629 -0.298431,0.657966 -0.589172,0.743214 0.08711,0.06963 0.151132,0.162091 0.203649,0.260545 0.121679,0.231729 0.203647,0.487472 0.459812,0.487472 0.06532,0 0.116551,-0.02042 0.116551,-0.02042 l -0.05634,0.48387 c 0,0 -0.156275,0.03602 -0.290753,0.03602 -0.347098,0 -0.545618,-0.126082 -0.749275,-0.560712 -0.0871,-0.194508 -0.207496,-0.536697 -0.368874,-0.536697 h -0.165225 v 1.084203 H 72.29476 v -2.741129 m 0.723657,0.491073 v 0.674778 h 0.260005 c 0.207499,0 0.450848,-0.06122 0.450848,-0.352996 0,-0.240136 -0.165224,-0.320581 -0.36375,-0.320581 h -0.347103 z"
       id="path31140"
       style="fill:#000000;stroke-width:0.124009" /><g
       aria-label="CARBIDE"
       id="text31335"
       style="font-size:27.4547px;line-height:1.25;font-family:Poppins;-inkscape-font-specification:'Poppins, Normal';font-variant-ligatures:none;white-space:pre;display:inline;fill:#b70000;stroke-width:1.14395"
       transform="matrix(0.16218084,0,0,0.16218084,60.103036,58.902102)"
       inkscape:export-filename="light.svg"
       inkscape:export-xdpi="25.4"
       inkscape:export-ydpi="25.4"><path
         d="m -6.1519738,129.50571 c -4.2024632,0 -6.5395462,2.37996 -6.5395462,7.2471 0,4.8457 2.315645,7.22567 6.5395462,7.22567 h 5.59614124 v -2.53005 H -6.1519738 c -2.808785,0 -4.0094952,-1.39368 -4.0094952,-4.69562 0,-3.32337 1.2221472,-4.71704 4.0094952,-4.71704 h 5.59614124 v -2.53006 z"
         style="fill:#000000;stroke-width:0.893384"
         id="path31550" /><path
         d="m 8.4923117,132.94595 c 0.1500858,-0.34306 0.3859448,-0.49315 0.7289991,-0.49315 0.343062,0 0.5789133,0.15009 0.7075614,0.49315 l 4.3954318,11.64254 h 2.808793 L 12.24451,131.7238 c -0.514585,-1.35079 -1.500881,-1.86538 -3.001754,-1.86538 -1.5223261,0 -2.5086138,0.51459 -3.0446443,1.86538 l -5.0815559,12.86469 h 2.7873557 z"
         style="font-family:Nasalization;-inkscape-font-specification:Nasalization;stroke-width:0.893384;fill:#ea2630;fill-opacity:1"
         id="path31552" /><path
         d="m 19.234289,129.50571 v 2.53006 h 7.933224 c 1.393678,0 2.015466,0.87908 2.015466,1.90825 0,1.02918 -0.578905,2.01547 -2.015466,2.01547 h -5.639016 c -1.586646,0 -2.272762,0.66468 -2.272762,2.2942 v 5.72479 h 2.530051 v -5.23164 c 0,-0.25729 0.128648,-0.3645 0.3645,-0.3645 h 3.773643 l 3.301933,5.59614 h 2.808793 l -3.366261,-5.78911 c 2.208443,-0.62179 3.066082,-2.55149 3.066082,-4.35255 0,-2.31565 -1.39367,-4.33111 -4.652728,-4.33111 z"
         style="fill:#000000;stroke-width:0.893384"
         id="path31554" /><path
         d="m 35.78683,129.50571 c -0.814764,0 -1.200701,0.38594 -1.200701,1.17926 v 12.11425 c 0,0.79332 0.385937,1.17926 1.200701,1.17926 h 6.432343 c 3.409144,0 4.845697,-1.67241 4.845697,-3.98805 0,-1.67241 -0.771882,-2.74447 -2.144114,-3.30194 1.350795,-0.53603 2.079794,-1.54376 2.079794,-3.21617 0,-2.35853 -1.436561,-3.96661 -4.845697,-3.96661 z m 1.286467,8.21195 h 5.210196 c 1.479444,0 2.22988,0.64324 2.22988,1.86538 0,1.17927 -0.707553,1.88682 -2.22988,1.88682 h -4.931462 c -0.171531,0 -0.278734,-0.0643 -0.278734,-0.23585 z m 0,-5.46749 c 0,-0.17153 0.107203,-0.25729 0.278734,-0.25729 h 4.88858 c 1.543763,0 2.208442,0.75044 2.208442,1.88682 0,1.17926 -0.728999,1.73673 -2.22988,1.73673 h -5.145876 z"
         style="fill:#000000;stroke-width:0.893384"
         id="path31556" /><path
         d="m 50.002311,129.50571 v 14.47277 h 2.530052 v -14.47277 z"
         style="fill:#000000;stroke-width:0.893384"
         id="path31558" /><path
         d="m 57.227935,129.50571 c -0.814765,0 -1.200702,0.38594 -1.200702,1.17926 v 12.11425 c 0,0.79332 0.385937,1.17926 1.200702,1.17926 h 5.102993 c 4.245346,0 6.518109,-2.35852 6.518109,-7.22567 0,-4.88858 -2.294201,-7.2471 -6.518109,-7.2471 z m 1.329349,2.78734 c 0,-0.19296 0.08577,-0.25728 0.278735,-0.25728 h 3.494909 c 2.808785,0 3.988049,1.39367 3.988049,4.6956 0,3.32338 -1.179264,4.71706 -3.988049,4.71706 h -3.494909 c -0.192969,0 -0.278735,-0.0644 -0.278735,-0.2573 z"
         style="fill:#000000;stroke-width:0.893384"
         id="path31560" /><path
         d="m 76.139011,129.50571 c -3.409144,0 -4.845696,1.62953 -4.845696,3.94517 0,1.58664 0.686116,2.70158 2.036911,3.25905 -1.32935,0.55747 -2.079794,1.67241 -2.079794,3.32338 0,2.25132 1.393678,3.94517 4.824259,3.94517 h 7.332873 v -2.53005 h -7.332873 c -1.479443,0 -2.186997,-0.68612 -2.186997,-1.8225 0,-1.17927 0.750436,-1.75818 2.208435,-1.75818 h 7.182787 v -2.2942 h -7.118459 c -1.457998,0 -2.208443,-0.53603 -2.208443,-1.71529 0,-1.11494 0.664679,-1.82249 2.186997,-1.82249 h 7.247108 v -2.53006 z"
         style="fill:#000000;stroke-width:0.893384"
         id="path31562" /></g><rect
       x="50.399559"
       y="76.763397"
       class="st1"
       width="6.1760478"
       height="0.7924822"
       id="rect11"
       style="fill:#ea2630;fill-opacity:1;stroke-width:0.0442727" /><rect
       x="50.399559"
       y="78.348358"
       class="st1"
       width="6.1760478"
       height="0.7924822"
       id="rect12"
       style="fill:#ea2630;fill-opacity:1;stroke-width:0.0442727" /><rect
       y="79.933319"
       class="st1"
       width="11.634876"
       height="0.7924822"
       id="rect13"
       style="fill:#ea2630;fill-opacity:1;stroke-width:0.0442727"
       x="44.940727" /><rect
       y="81.52272"
       class="st1"
       width="11.634876"
       height="0.7924822"
       id="rect14"
       style="fill:#ea2630;fill-opacity:1;stroke-width:0.0442727"
       x="44.940727" /><path
       class="st2"
       d="m 50.005526,77.2858 -0.05314,-0.327619 c -0.01771,-0.106254 -0.05755,-0.1948 -0.09298,-0.1948 -0.03542,0 -0.05756,0.08854 -0.05756,0.1948 v 0.08854 c 0,0.106254 -0.08855,0.190373 -0.1948,0.190373 h -0.106254 v 0.239073 h 0.345327 c 0.08855,0.0044 0.16381,-0.06642 0.168237,-0.154955 -0.0044,-0.01328 -0.0044,-0.02656 -0.0088,-0.03542"
       id="path14"
       style="fill:#000080;fill-opacity:1;stroke-width:0.0442727" /><path
       class="st2"
       d="m 49.230752,77.006882 h -1.080254 c -0.0044,0 -0.01328,0 -0.01771,0 v -0.05314 c 0,-0.106254 -0.02656,-0.194799 -0.05756,-0.194799 -0.03099,0 -0.07527,0.08855 -0.09298,0.190372 l -0.05756,0.332046 c -0.01771,0.08855 0.03542,0.172664 0.123964,0.190373 0.01328,0.0044 0.02656,0.0044 0.03984,0.0044 h 0.323192 c 0.03099,0 0.06198,-0.0044 0.09297,-0.01771 -0.0088,0.05756 -0.05756,0.0974 -0.11511,0.0974 h -0.456008 c -0.06642,0 -0.119537,-0.05313 -0.119537,-0.119536 v 0 c 0,-0.0044 0,-0.01328 0,-0.01771 l 0.04427,-0.274492 c 0.0088,-0.06642 -0.03099,-0.123964 -0.09741,-0.137245 v 0 c -0.0044,0 -0.01328,0 -0.01771,0 h -2.262338 c -0.0487,0 -0.08855,0.02656 -0.106255,0.07084 l -0.429445,0.646382 c -0.0088,0.0088 -0.0044,0.02656 0,0.03542 l 0.08413,0.0974 c 0.0088,0.01328 0.02656,0.01328 0.03984,0.0044 l 0.287773,-0.225792 v 1.385738 c 0,0.06642 0.05313,0.119536 0.115109,0.119536 0,0 0,0 0.0044,0 h 0.641956 c 0.06642,0 0.119536,-0.05314 0.119536,-0.119536 v -0.482574 c 0,-0.06642 0.05313,-0.119536 0.119536,-0.119536 v 0 h 1.602674 c 0.06642,0 0.119536,0.05313 0.119536,0.119536 v 0 0.482574 c 0,0.06642 0.05313,0.119536 0.115109,0.119536 0,0 0,0 0.0044,0 h 0.641955 c 0.06642,0 0.119536,-0.05314 0.119536,-0.119536 v 0 -0.522418 h -0.340955 c -0.106254,0 -0.194799,-0.08855 -0.194799,-0.194801 v 0 -0.332046 c 0,-0.06199 0.03099,-0.119536 0.0797,-0.154954 v 0.398454 c 0,0.106256 0.08855,0.194801 0.1948,0.194801 h 0.522419 c 0.106254,0 0.194799,-0.08854 0.194799,-0.194801 v -1.018273 c 0.0044,-0.106255 -0.0797,-0.190373 -0.185944,-0.190373"
       id="path15"
       style="fill:#192072;fill-opacity:1;stroke-width:0.0442727" /></g></svg>
