<?xml version="1.0" encoding="UTF-8" standalone="no"?>
<!-- Created with Inkscape (http://www.inkscape.org/) -->

<svg
   width="140.45041"
   height="21.366844"
   viewBox="0 0 37.160837 5.6533109"
   version="1.1"
   id="svg28582"
   inkscape:version="1.4 (e7c3feb1, 2024-10-09)"
   sodipodi:docname="test5.svg"
   inkscape:export-filename="/tmp/new-rancher-logos/rancher-logo.3680d0eb.svg"
   inkscape:export-xdpi="96"
   inkscape:export-ydpi="96"
   xml:space="preserve"
   xmlns:inkscape="http://www.inkscape.org/namespaces/inkscape"
   xmlns:sodipodi="http://sodipodi.sourceforge.net/DTD/sodipodi-0.dtd"
   xmlns="http://www.w3.org/2000/svg"
   xmlns:svg="http://www.w3.org/2000/svg"><sodipodi:namedview
     id="namedview28584"
     pagecolor="#878787"
     bordercolor="#666666"
     borderopacity="1.0"
     inkscape:showpageshadow="2"
     inkscape:pageopacity="0"
     inkscape:pagecheckerboard="0"
     inkscape:deskcolor="#d1d1d1"
     inkscape:document-units="mm"
     showgrid="false"
     inkscape:zoom="8.339124"
     inkscape:cx="36.214835"
     inkscape:cy="2.1585001"
     inkscape:window-width="1920"
     inkscape:window-height="1147"
     inkscape:window-x="1920"
     inkscape:window-y="25"
     inkscape:window-maximized="0"
     inkscape:current-layer="layer1"><inkscape:page
       x="0"
       y="0"
       width="37.160835"
       height="5.6533108"
       id="page2"
       margin="0"
       bleed="0" /></sodipodi:namedview><defs
     id="defs28579" /><g
     inkscape:label="Layer 1"
     inkscape:groupmode="layer"
     id="layer1"
     transform="translate(-44.94003,-76.671645)"><path
       d="m 57.728022,76.718819 h 1.154988 c 0.548647,0 0.9181,0.249681 0.9181,0.731785 0,0.393506 -0.285987,0.630529 -0.564604,0.712223 0.08347,0.06673 0.144829,0.155332 0.195151,0.24968 0.116606,0.222066 0.19516,0.467145 0.440641,0.467145 0.06259,0 0.111692,-0.01957 0.111692,-0.01957 l -0.05401,0.463693 c 0,0 -0.149741,0.03452 -0.278619,0.03452 -0.332625,0 -0.522876,-0.120825 -0.718035,-0.537331 -0.08347,-0.186397 -0.198832,-0.514317 -0.353491,-0.514317 h -0.158339 v 1.038988 h -0.693481 v -2.626827 m 0.693481,0.470596 v 0.64664 h 0.249166 c 0.198838,0 0.432046,-0.05867 0.432046,-0.338276 0,-0.230123 -0.158334,-0.307213 -0.348585,-0.307213 h -0.332627 z"
       id="path31128"
       style="fill:#ffffff;stroke-width:0.118838"
       inkscape:export-filename="../text2.svg"
       inkscape:export-xdpi="96"
       inkscape:export-ydpi="96" /><path
       d="m 60.737619,76.718819 h 0.702076 l 0.946329,2.627977 h -0.702076 l -0.174289,-0.498209 h -0.938965 l -0.170611,0.498209 h -0.606341 l 0.943877,-2.627977 m 0,1.646513 h 0.602652 l -0.191473,-0.552289 c -0.0663,-0.186397 -0.09573,-0.451037 -0.09573,-0.451037 h -0.01718 c 0,0 -0.04172,0.268092 -0.104323,0.447586 z"
       id="path31130"
       style="fill:#ffffff;stroke-width:0.118838" /><path
       d="m 62.415479,76.718819 h 0.743812 l 0.735214,1.303633 c 0.06259,0.112764 0.14483,0.311816 0.212343,0.467145 h 0.01716 c -0.0084,-0.148428 -0.02945,-0.357837 -0.02945,-0.509716 v -1.261062 h 0.568287 v 2.627977 h -0.726633 l -0.763448,-1.300181 c -0.07118,-0.117356 -0.144829,-0.287651 -0.203751,-0.428025 h -0.01716 c 0.01229,0.14843 0.03312,0.323321 0.03312,0.467144 v 1.261062 h -0.56952 v -2.627977"
       id="path31132"
       style="fill:#ffffff;stroke-width:0.118838" /><path
       d="m 64.810148,78.0144 c 0,-0.94925 0.502014,-1.342755 1.278956,-1.342755 0.817458,0 1.146399,0.419969 1.054342,0.988368 l -0.648068,0.05408 c 0.07118,-0.416518 -0.104306,-0.583355 -0.419772,-0.583355 -0.303168,0 -0.54865,0.210559 -0.54865,0.887114 0,0.716826 0.266348,0.899771 0.568289,0.899771 0.285984,0 0.519193,-0.167986 0.468868,-0.509716 l 0.606341,0.05869 c 0.0454,0.532731 -0.36577,0.926236 -1.11326,0.926236 -0.756081,0 -1.247046,-0.419971 -1.247046,-1.378422"
       id="path31134"
       style="fill:#ffffff;stroke-width:0.118838" /><polyline
       points="172.5,26.84 178.15,26.84 178.15,35.47 185.09,35.47 185.09,26.84 190.74,26.84 190.74,49.68 185.09,49.68    185.09,40 178.15,40 178.15,49.68 172.5,49.68 172.5,26.84  "
       id="polyline31136"
       transform="matrix(0.12274057,0,0,0.1150603,46.141308,73.630598)"
       style="fill:#ffffff" /><polyline
       points="193,26.84 208.12,26.84 208.12,31.03 198.65,31.03 198.65,35.94 206.6,35.94 206.6,40.13 198.65,40.13    198.65,45.48 208.46,45.48 208.46,49.68 193,49.68 193,26.84  "
       id="polyline31138"
       transform="matrix(0.12274057,0,0,0.1150603,46.141308,73.630598)"
       style="fill:#ffffff" /><path
       d="m 71.860371,76.718819 h 1.154985 c 0.548655,0 0.918102,0.249681 0.918102,0.731785 0,0.393506 -0.285987,0.630529 -0.564604,0.712223 0.08348,0.06673 0.14483,0.155332 0.195157,0.24968 0.116605,0.222066 0.195155,0.467145 0.440638,0.467145 0.0626,0 0.111691,-0.01957 0.111691,-0.01957 l -0.05399,0.463693 c 0,0 -0.149759,0.03452 -0.278629,0.03452 -0.332625,0 -0.522867,-0.120825 -0.718031,-0.537331 -0.08347,-0.186397 -0.198844,-0.514317 -0.353493,-0.514317 h -0.158335 v 1.038993 h -0.693481 v -2.626827 m 0.693481,0.470595 v 0.646641 h 0.249163 c 0.198847,0 0.432048,-0.05867 0.432048,-0.338277 0,-0.230122 -0.158334,-0.307213 -0.348582,-0.307213 h -0.332629 z"
       id="path31140"
       style="fill:#ffffff;stroke-width:0.118838" /><g
       aria-label="CARBIDE"
       id="text31335"
       style="font-size:27.4547px;line-height:1.25;font-family:Poppins;-inkscape-font-specification:'Poppins, Normal';font-variant-ligatures:none;white-space:pre;display:inline;fill:#ffffff;stroke-width:1.14395"
       transform="matrix(0.16218084,0,0,0.16218084,60.103036,58.902102)"
       inkscape:export-filename="light.svg"
       inkscape:export-xdpi="25.4"
       inkscape:export-ydpi="25.4"><path
         style="font-weight:bold;font-size:21.6255px;-inkscape-font-specification:'Poppins Bold';text-align:center;text-anchor:middle;stroke:#001685;stroke-width:0"
         d="m -4.3441791,133.65505 q -0.4108845,-0.75689 -1.1894025,-1.14615 -0.7568925,-0.41088 -1.7949165,-0.41088 -1.7949165,0 -2.8761919,1.1894 -1.081275,1.16778 -1.081275,3.1357 0,2.09767 1.124526,3.28707 1.1461519,1.16778 3.1356979,1.16778 1.3624065,0 2.292303,-0.69202 0.951522,-0.69201 1.3840319,-1.98954 h -4.6927334 v -2.72481 h 8.04468591 v 3.43845 q -0.4108845,1.38403 -1.40565751,2.57343 -0.9731475,1.18941 -2.4869324,1.92467 -1.513785,0.73527 -3.416829,0.73527 -2.249052,0 -4.0223434,-0.97315 -1.751665,-0.99477 -2.746438,-2.74643 -0.973148,-1.75167 -0.973148,-4.00072 0,-2.24905 0.973148,-4.00072 0.994773,-1.77329 2.746438,-2.74644 1.7516659,-0.99477 4.0007179,-0.99477 2.724813,0 4.5846059,1.31915 1.88141852,1.31916 2.48693251,3.65471 z m 13.5807959,10.53162 q -2.1409245,0 -3.935841,-0.99477 -1.7732909,-0.99477 -2.8329404,-2.76806 -1.038024,-1.79492 -1.038024,-4.02235 0,-2.22742 1.038024,-4.00072 1.0596495,-1.77329 2.8329404,-2.76806 1.7949165,-0.99477 3.935841,-0.99477 2.1409242,0 3.9142152,0.99477 1.794917,0.99477 2.811315,2.76806 1.038024,1.7733 1.038024,4.00072 0,2.22743 -1.038024,4.02235 -1.038024,1.77329 -2.811315,2.76806 -1.773291,0.99477 -3.9142152,0.99477 z m 0,-3.37358 q 1.8165422,0 2.8978172,-1.21102 1.1029,-1.21103 1.1029,-3.20058 0,-2.01117 -1.1029,-3.20057 -1.081275,-1.21103 -2.8978172,-1.21103 -1.8381675,0 -2.941068,1.1894 -1.081275,1.18941 -1.081275,3.2222 0,2.01117 1.081275,3.2222 1.1029005,1.1894 2.941068,1.1894 z m 24.0691672,-11.9589 -5.384749,15.1811 h -4.627857 l -5.384749,-15.1811 h 3.935841 l 3.762836,11.46152 3.784463,-11.46152 z m 5.233359,2.9627 v 3.07082 h 4.952239 v 2.85456 h -4.952239 v 3.33033 h 5.601004 v 2.96269 h -9.298965 v -15.1811 h 9.298965 v 2.9627 z m 15.743374,12.2184 -3.157323,-5.73075 h -0.886646 v 5.73075 h -3.69796 v -15.1811 h 6.206518 q 1.794917,0 3.049196,0.62714 1.275904,0.62714 1.903044,1.73004 0.627139,1.08128 0.627139,2.42206 0,1.51378 -0.86502,2.70319 -0.843394,1.1894 -2.508558,1.68678 l 3.503331,6.01189 z m -4.043969,-8.34744 h 2.292303 q 1.016399,0 1.513785,-0.49739 0.519012,-0.49738 0.519012,-1.40565 0,-0.86502 -0.519012,-1.36241 -0.497386,-0.49739 -1.513785,-0.49739 h -2.292303 z m 23.982684,8.34744 h -3.69796 l -6.184893,-9.36384 v 9.36384 h -3.697961 v -15.1811 h 3.697961 l 6.184893,9.4071 v -9.4071 h 3.69796 z m 19.873856,-15.1811 v 15.1811 h -3.69796 v -9.10433 l -3.395203,9.10433 h -2.984319 l -3.416829,-9.12596 v 9.12596 h -3.697961 v -15.1811 h 4.368351 l 4.260224,10.51 4.216972,-10.51 z m 6.357882,2.9627 v 3.07082 h 4.95224 v 2.85456 h -4.95224 v 3.33033 h 5.60101 v 2.96269 h -9.298968 v -15.1811 h 9.298968 v 2.9627 z m 21.58226,12.2184 h -3.69796 l -6.1849,-9.36384 v 9.36384 h -3.69796 v -15.1811 h 3.69796 l 6.1849,9.4071 v -9.4071 h 3.69796 z m 13.60246,-15.1811 v 2.9627 h -4.02234 v 12.2184 h -3.69796 v -12.2184 h -4.02235 v -2.9627 z"
         id="text2"
         aria-label="GOVERNMENT" /><text
         xml:space="preserve"
         style="font-size:26.1025px;font-family:'Bodoni 72';-inkscape-font-specification:'Bodoni 72, ';text-align:center;writing-mode:lr-tb;direction:ltr;text-anchor:middle;fill:#ffffff;stroke:#001685;stroke-width:0"
         x="-10.734409"
         y="135.96356"
         id="text1"><tspan
           sodipodi:role="line"
           id="tspan1"
           style="font-style:normal;font-variant:normal;font-weight:normal;font-stretch:normal;font-size:26.1025px;font-family:Nasalization;-inkscape-font-specification:Nasalization;stroke-width:0;fill:#ffffff"
           x="-10.734409"
           y="135.96356" /></text></g><rect
       x="50.399559"
       y="76.763397"
       class="st1"
       width="6.1760478"
       height="0.7924822"
       id="rect11"
       style="fill:#ea2630;fill-opacity:1;stroke-width:0.0442727" /><rect
       x="50.399559"
       y="78.348358"
       class="st1"
       width="6.1760478"
       height="0.7924822"
       id="rect12"
       style="fill:#ea2630;fill-opacity:1;stroke-width:0.0442727" /><rect
       y="79.933319"
       class="st1"
       width="11.634876"
       height="0.7924822"
       id="rect13"
       style="fill:#ea2630;fill-opacity:1;stroke-width:0.0442727"
       x="44.940727" /><rect
       y="81.52272"
       class="st1"
       width="11.634876"
       height="0.7924822"
       id="rect14"
       style="fill:#ea2630;fill-opacity:1;stroke-width:0.0442727"
       x="44.940727" /><path
       class="st2"
       d="m 50.005526,77.2858 -0.05314,-0.327619 c -0.01771,-0.106254 -0.05755,-0.1948 -0.09298,-0.1948 -0.03542,0 -0.05756,0.08854 -0.05756,0.1948 v 0.08854 c 0,0.106254 -0.08855,0.190373 -0.1948,0.190373 h -0.106254 v 0.239073 h 0.345327 c 0.08855,0.0044 0.16381,-0.06642 0.168237,-0.154955 -0.0044,-0.01328 -0.0044,-0.02656 -0.0088,-0.03542"
       id="path14"
       style="fill:#2453ff;fill-opacity:1;stroke-width:0.0442727" /><path
       class="st2"
       d="m 49.230752,77.006882 h -1.080254 c -0.0044,0 -0.01328,0 -0.01771,0 v -0.05314 c 0,-0.106254 -0.02656,-0.194799 -0.05756,-0.194799 -0.03099,0 -0.07527,0.08855 -0.09298,0.190372 l -0.05756,0.332046 c -0.01771,0.08855 0.03542,0.172664 0.123964,0.190373 0.01328,0.0044 0.02656,0.0044 0.03984,0.0044 h 0.323192 c 0.03099,0 0.06198,-0.0044 0.09297,-0.01771 -0.0088,0.05756 -0.05756,0.0974 -0.11511,0.0974 h -0.456008 c -0.06642,0 -0.119537,-0.05313 -0.119537,-0.119536 v 0 c 0,-0.0044 0,-0.01328 0,-0.01771 l 0.04427,-0.274492 c 0.0088,-0.06642 -0.03099,-0.123964 -0.09741,-0.137245 v 0 c -0.0044,0 -0.01328,0 -0.01771,0 h -2.262338 c -0.0487,0 -0.08855,0.02656 -0.106255,0.07084 l -0.429445,0.646382 c -0.0088,0.0088 -0.0044,0.02656 0,0.03542 l 0.08413,0.0974 c 0.0088,0.01328 0.02656,0.01328 0.03984,0.0044 l 0.287773,-0.225792 v 1.385738 c 0,0.06642 0.05313,0.119536 0.115109,0.119536 0,0 0,0 0.0044,0 h 0.641956 c 0.06642,0 0.119536,-0.05314 0.119536,-0.119536 v -0.482574 c 0,-0.06642 0.05313,-0.119536 0.119536,-0.119536 v 0 h 1.602674 c 0.06642,0 0.119536,0.05313 0.119536,0.119536 v 0 0.482574 c 0,0.06642 0.05313,0.119536 0.115109,0.119536 0,0 0,0 0.0044,0 h 0.641955 c 0.06642,0 0.119536,-0.05314 0.119536,-0.119536 v 0 -0.522418 h -0.340955 c -0.106254,0 -0.194799,-0.08855 -0.194799,-0.194801 v 0 -0.332046 c 0,-0.06199 0.03099,-0.119536 0.0797,-0.154954 v 0.398454 c 0,0.106256 0.08855,0.194801 0.1948,0.194801 h 0.522419 c 0.106254,0 0.194799,-0.08854 0.194799,-0.194801 v -1.018273 c 0.0044,-0.106255 -0.0797,-0.190373 -0.185944,-0.190373"
       id="path15"
       style="fill:#2453ff;fill-opacity:1;stroke-width:0.0442727" /></g></svg>
