<?xml version="1.0" encoding="UTF-8" standalone="no"?>
<!-- Created with Inkscape (http://www.inkscape.org/) -->

<svg
   width="196.80653mm"
   height="33.36396mm"
   viewBox="0 0 196.80653 33.36396"
   version="1.1"
   id="svg227"
   sodipodi:docname="rancher-logo.svg"
   inkscape:export-filename="../../../../Desktop/carbide_flag_full_topleft.svg"
   inkscape:export-xdpi="96"
   inkscape:export-ydpi="96"
   inkscape:version="1.2.2 (b0a84865, 2022-12-01)"
   xmlns:inkscape="http://www.inkscape.org/namespaces/inkscape"
   xmlns:sodipodi="http://sodipodi.sourceforge.net/DTD/sodipodi-0.dtd"
   xmlns:xlink="http://www.w3.org/1999/xlink"
   xmlns="http://www.w3.org/2000/svg"
   xmlns:svg="http://www.w3.org/2000/svg">
  <sodipodi:namedview
     id="namedview229"
     pagecolor="#ffffff"
     bordercolor="#000000"
     borderopacity="0.25"
     inkscape:showpageshadow="2"
     inkscape:pageopacity="0.0"
     inkscape:pagecheckerboard="0"
     inkscape:deskcolor="#d1d1d1"
     inkscape:document-units="mm"
     showgrid="false"
     inkscape:zoom="0.79565239"
     inkscape:cx="409.09825"
     inkscape:cy="301.01085"
     inkscape:window-width="1710"
     inkscape:window-height="1041"
     inkscape:window-x="1122"
     inkscape:window-y="1483"
     inkscape:window-maximized="0"
     inkscape:current-layer="layer1" />
  <defs
     id="defs224">
    <linearGradient
       inkscape:collect="always"
       id="linearGradient23951">
      <stop
         style="stop-color:#f15354;stop-opacity:1;"
         offset="0.35691318"
         id="stop23947" />
      <stop
         style="stop-color:#f15354;stop-opacity:0;"
         offset="1"
         id="stop23949" />
    </linearGradient>
    <rect
       x="131.39999"
       y="445.2453"
       width="472.92496"
       height="339.48843"
       id="rect473" />
    <clipPath
       clipPathUnits="userSpaceOnUse"
       id="clipPath280">
      <rect
         style="fill:#000000"
         id="rect282"
         width="262.79999"
         height="126.1"
         x="0"
         y="1.3" />
    </clipPath>
    <filter
       inkscape:label="Fast Crop"
       inkscape:auto-region="false"
       inkscape:menu="Fill and Transparency"
       inkscape:menu-tooltip="Does not filter but adds a filter region"
       style="color-interpolation-filters:sRGB"
       id="filter224">
      <feColorMatrix
         type="saturate"
         values="1"
         id="feColorMatrix222" />
    </filter>
    <linearGradient
       inkscape:collect="always"
       xlink:href="#linearGradient23951"
       id="linearGradient23953"
       x1="99.316485"
       y1="66.293441"
       x2="118.29028"
       y2="66.293441"
       gradientUnits="userSpaceOnUse" />
  </defs>
  <g
     inkscape:label="Layer 1"
     inkscape:groupmode="layer"
     id="layer1"
     transform="translate(0,-50.017172)">
    <g
       id="Layer_2_1_"
       style="filter:url(#filter224)"
       clip-path="url(#clipPath280)"
       transform="matrix(0.26458333,0,0,0.26458333,0,49.673213)">
      <g
         id="Layer_1-2">
        <path
           class="st0"
           d="m 293.6,1.2 h 28.6 c 13.6,0 22.7,6.6 22.7,19.3 0,10.4 -7.1,16.6 -14,18.8 2,1.8 3.7,4.1 4.8,6.6 2.9,5.8 4.8,12.3 10.9,12.3 0.9,0 1.9,-0.2 2.8,-0.5 l -1.3,12.2 c -2.3,0.5 -4.6,0.8 -6.9,0.9 -8.2,0 -12.9,-3.2 -17.7,-14.2 -2,-4.9 -4.9,-13.6 -8.7,-13.6 h -3.9 V 70.4 H 293.7 V 1.2 Z m 17.2,12.5 v 17 h 6.2 c 4.9,0 10.7,-1.5 10.7,-8.9 0,-6.1 -3.9,-8.1 -8.6,-8.1 z"
           id="path43006"
           style="fill:#59595b" />
        <path
           class="st0"
           d="m 368.1,1.2 h 17.4 l 23.4,69.3 H 391.5 L 387.2,57.3 H 364 l -4.2,13.2 h -15 z m 0,43.5 H 383 l -4.7,-14.6 c -1.1,-3.9 -1.9,-7.9 -2.4,-11.9 h -0.4 c -0.6,4 -1.4,7.9 -2.6,11.8 z"
           id="path43003"
           style="fill:#59595b" />
        <path
           class="st0"
           d="M 409.6,1.2 H 428 l 18.2,34.4 c 1.5,3 3.6,8.2 5.2,12.3 h 0.4 C 451.6,44 451.1,38.4 451.1,34.4 V 1.2 h 14.1 v 69.3 h -18 L 428.3,36.2 c -1.9,-3.7 -3.6,-7.4 -5,-11.3 h -0.4 c 0.3,3.9 0.8,8.5 0.8,12.3 V 70.5 H 409.5 V 1.2 Z"
           id="path43000"
           style="fill:#59595b" />
        <path
           class="st0"
           d="M 468.8,35.4 C 468.8,10.3 481.2,0 500.4,0 c 20.2,0 28.4,11.1 26.1,26.1 l -16,1.4 c 1.8,-11 -2.6,-15.4 -10.4,-15.4 -7.5,0 -13.6,5.6 -13.6,23.4 0,18.9 6.6,23.7 14.1,23.7 7.1,0 12.8,-4.4 11.6,-13.5 l 15,1.5 c 1.1,14.1 -9,24.4 -27.5,24.4 C 481,71.8 468.9,60.7 468.8,35.4"
           id="path42997"
           style="fill:#59595b" />
        <path
           id="path42994"
           style="fill:#59595b"
           class="st0"
           d="M 549.9,1.2 V 27.4 H 571 V 1.2 h 17.1 V 70.6 H 571 V 41.2 H 549.9 V 70.6 H 532.8 V 1.2 Z" />
        <path
           id="path42991"
           style="fill:#59595b"
           class="st0"
           d="M 638.9,1.2 V 14 h -28.7 v 14.9 h 24.1 v 12.7 h -24.1 v 16.2 h 29.7 V 70.6 H 593 V 1.2 Z" />
        <path
           class="st0"
           d="m 643.2,1.2 h 28.5 c 13.6,0 22.7,6.6 22.7,19.3 0,10.4 -7.1,16.6 -14,18.8 2,1.8 3.7,4.1 4.8,6.6 2.9,5.8 4.8,12.3 10.9,12.3 0.9,0 1.9,-0.2 2.8,-0.5 l -1.3,12.2 c -2.3,0.5 -4.6,0.8 -6.9,0.9 -8.2,0 -12.9,-3.2 -17.8,-14.2 C 670.9,51.7 668,43 664.2,43 h -3.9 v 27.4 h -17.1 z m 17.2,12.5 v 17 h 6.2 c 4.9,0 10.7,-1.5 10.7,-8.9 0,-6.1 -3.9,-8.1 -8.6,-8.1 z"
           id="path42988"
           style="fill:#59595b" />
        <path
           class="st0"
           d="m 293.6,92 h 21.2 v 3 h -17.9 v 12.6 h 16.6 v 3 h -16.7 v 16.8 h -3.3 V 92 Z"
           id="path42985"
           style="fill:#59595b" />
        <path
           class="st0"
           d="M 326.4,92 H 348 v 3 h -18.4 v 12.6 h 17.2 v 3 h -17.2 v 13.8 h 19.1 v 3 H 326.3 V 92 Z"
           id="path42982"
           style="fill:#59595b" />
        <path
           class="st0"
           d="m 360.6,92 h 11 c 2.6,-0.1 5.3,0.3 7.8,1.1 1.9,0.6 3.7,1.6 5.3,2.9 1.3,1.1 2.5,2.4 3.4,3.9 0.8,1.3 1.4,2.6 1.8,4.1 0.3,1.2 0.6,2.3 0.7,3.5 0.1,1.1 0.1,1.8 0.1,2.2 0,0.4 0,1.2 -0.1,2.2 -0.1,1.2 -0.4,2.4 -0.7,3.5 -0.4,1.4 -1,2.8 -1.8,4.1 -0.9,1.5 -2,2.8 -3.4,3.9 -1.6,1.3 -3.4,2.2 -5.3,2.9 -2.5,0.8 -5.2,1.2 -7.8,1.1 h -11 z m 3.3,32.4 h 6.8 c 2.2,0 4.4,-0.3 6.5,-0.9 1.9,-0.5 3.7,-1.4 5.3,-2.7 1.5,-1.2 2.7,-2.8 3.5,-4.6 1.7,-4.2 1.7,-8.9 0,-13.2 -0.8,-1.8 -2,-3.4 -3.5,-4.6 -1.6,-1.2 -3.4,-2.1 -5.3,-2.7 -2.1,-0.6 -4.3,-0.9 -6.5,-0.9 h -6.8 z"
           id="path42979"
           style="fill:#59595b" />
        <path
           class="st0"
           d="m 403.1,92 h 21.6 v 3 h -18.4 v 12.6 h 17.2 v 3 h -17.2 v 13.8 h 19.1 v 3 H 403 V 92 Z"
           id="path42976"
           style="fill:#59595b" />
        <path
           class="st0"
           d="m 437.8,92 h 9.3 c 0.5,0 1.1,0 1.9,0 0.9,0 1.7,0.1 2.6,0.3 1,0.2 1.9,0.4 2.9,0.8 1,0.4 1.8,0.9 2.6,1.6 0.8,0.7 1.4,1.7 1.9,2.7 0.5,1.2 0.8,2.6 0.8,3.9 0.1,1.4 -0.2,2.9 -0.9,4.2 -0.5,1 -1.3,2 -2.2,2.7 -0.9,0.7 -1.9,1.2 -2.9,1.5 -1,0.3 -2,0.6 -3,0.7 l 10.3,17 h -3.8 l -10,-16.8 h -6.1 v 16.8 h -3.3 V 92 Z m 3.3,15.6 h 7 c 1.4,0.1 2.9,-0.2 4.2,-0.7 0.9,-0.3 1.8,-0.9 2.5,-1.6 0.6,-0.6 1,-1.2 1.2,-2 0.4,-1.3 0.4,-2.7 0,-4 -0.3,-0.8 -0.7,-1.4 -1.2,-2 -0.7,-0.7 -1.6,-1.2 -2.5,-1.6 -1.4,-0.5 -2.8,-0.7 -4.2,-0.7 h -7 z"
           id="path42973"
           style="fill:#59595b" />
        <path
           class="st0"
           d="m 483.3,92 h 3.4 l 14.9,35.4 h -3.7 L 494,118 h -18.7 l -4,9.4 h -3.5 z m 1.5,3.6 -8.2,19.4 h 16.2 z"
           id="path42970"
           style="fill:#59595b" />
        <path
           class="st0"
           d="m 511.7,92 h 3.3 v 32.4 h 16.5 v 3 h -19.8 z"
           id="path42967"
           style="fill:#59595b" />
        <path
           id="path42964"
           style="fill:#f15354"
           class="st1"
           d="M 123.3,1.3 H 262.8 V 19.2 H 123.3 Z" />
        <path
           id="path42961"
           style="fill:#f15354"
           class="st1"
           d="m 123.3,37.099998 h 139.5 v 17.9 H 123.3 Z" />
        <path
           id="path42958"
           style="fill:#f15354"
           class="st1"
           d="M 0,72.900002 H 262.79999 V 90.800001 H 0 Z" />
        <path
           id="path42955"
           style="fill:#f15354"
           class="st1"
           d="m 0,108.8 h 262.79999 v 17.9 H 0 Z" />
        <path
           class="st2"
           d="m 114.4,13.1 -1.2,-7.4 c -0.4,-2.4 -1.3,-4.4 -2.1,-4.4 -0.8,0 -1.3,2 -1.3,4.4 v 2 c 0,2.4 -2,4.3 -4.4,4.3 H 103 v 5.4 h 7.8 c 2,0.1 3.7,-1.5 3.8,-3.5 -0.1,-0.3 -0.1,-0.6 -0.2,-0.8"
           id="path42952"
           style="fill:#0575a7" />
        <path
           class="st2"
           d="M 96.9,6.8 H 72.5 c -0.1,0 -0.3,0 -0.4,0 V 5.6 c 0,-2.4 -0.6,-4.4 -1.3,-4.4 -0.7,0 -1.7,2 -2.1,4.3 L 67.4,13 c -0.4,2 0.8,3.9 2.8,4.3 0.3,0.1 0.6,0.1 0.9,0.1 h 7.3 c 0.7,0 1.4,-0.1 2.1,-0.4 -0.2,1.3 -1.3,2.2 -2.6,2.2 H 67.6 c -1.5,0 -2.7,-1.2 -2.7,-2.7 0,0 0,0 0,0 0,-0.1 0,-0.3 0,-0.4 l 1,-6.2 c 0.2,-1.5 -0.7,-2.8 -2.2,-3.1 0,0 0,0 0,0 -0.1,0 -0.3,0 -0.4,0 H 12.2 c -1.1,0 -2,0.6 -2.4,1.6 L 0.1,23 c -0.2,0.2 -0.1,0.6 0,0.8 L 2,26 c 0.2,0.3 0.6,0.3 0.9,0.1 L 9.4,21 v 31.3 c 0,1.5 1.2,2.7 2.6,2.7 0,0 0,0 0.1,0 h 14.5 c 1.5,0 2.7,-1.2 2.7,-2.7 V 41.4 c 0,-1.5 1.2,-2.7 2.7,-2.7 0,0 0,0 0,0 h 36.2 c 1.5,0 2.7,1.2 2.7,2.7 0,0 0,0 0,0 v 10.9 c 0,1.5 1.2,2.7 2.6,2.7 0,0 0,0 0.1,0 h 14.5 c 1.5,0 2.7,-1.2 2.7,-2.7 v 0 -11.8 h -7.7 c -2.4,0 -4.4,-2 -4.4,-4.4 0,0 0,0 0,0 v -7.5 c 0,-1.4 0.7,-2.7 1.8,-3.5 v 9 c 0,2.4 2,4.4 4.4,4.4 h 11.8 c 2.4,0 4.4,-2 4.4,-4.4 v -23 C 101.2,8.7 99.3,6.8 96.9,6.8"
           id="path42949"
           style="fill:#0575a7" />
      </g>
    </g>
    <g
       aria-label="CARBIDE"
       transform="matrix(0.26458333,0,0,0.26458333,46.749737,-50.084542)"
       id="text471"
       style="font-size:96px;white-space:pre;fill:#fefefe;fill-opacity:1">
      <path
         d="m 166.15239,408.0298 c -18.816,0 -29.28,10.656 -29.28,32.448 0,21.696 10.368,32.352 29.28,32.352 h 25.056 v -11.328 h -25.056 c -12.576,0 -17.952,-6.24 -17.952,-21.024 0,-14.88 5.472,-21.12 17.952,-21.12 h 25.056 v -11.328 z"
         style="-inkscape-font-specification:Nasalization;fill:#fefefe;fill-opacity:1"
         id="path43027" />
      <path
         d="m 231.72031,420.7018 c 0.672,-1.536 1.728,-2.208 3.264,-2.208 1.536,0 2.592,0.672 3.168,2.208 l 19.68,52.128 h 12.576 l -21.888,-57.6 c -2.304,-6.048 -6.72,-8.352 -13.44,-8.352 -6.816,0 -11.232,2.304 -13.632,8.352 l -22.752,57.6 h 12.48 z"
         style="-inkscape-font-specification:Nasalization;fill:#fefefe;fill-opacity:1"
         id="path43024" />
      <path
         d="m 279.81617,408.0298 v 11.328 h 35.52 c 6.24,0 9.024,3.936 9.024,8.544 0,4.608 -2.592,9.024 -9.024,9.024 h -25.248 c -7.104,0 -10.176,2.976 -10.176,10.272 v 25.632 h 11.328 v -23.424 c 0,-1.152 0.576,-1.632 1.632,-1.632 h 16.896 l 14.784,25.056 h 12.576 l -15.072,-25.92 c 9.888,-2.784 13.728,-11.424 13.728,-19.488 0,-10.368 -6.24,-19.392 -20.832,-19.392 z"
         style="-inkscape-font-specification:Nasalization;fill:#fefefe;fill-opacity:1"
         id="path43021" />
      <path
         d="m 353.92805,408.0298 c -3.648,0 -5.376,1.728 -5.376,5.28 v 54.24 c 0,3.552 1.728,5.28 5.376,5.28 h 28.8 c 15.264,0 21.696,-7.488 21.696,-17.856 0,-7.488 -3.456,-12.288 -9.6,-14.784 6.048,-2.4 9.312,-6.912 9.312,-14.4 0,-10.56 -6.432,-17.76 -21.696,-17.76 z m 5.76,36.768 h 23.328 c 6.624,0 9.984,2.88 9.984,8.352 0,5.28 -3.168,8.448 -9.984,8.448 h -22.08 c -0.768,0 -1.248,-0.288 -1.248,-1.056 z m 0,-24.48 c 0,-0.768 0.48,-1.152 1.248,-1.152 h 21.888 c 6.912,0 9.888,3.36 9.888,8.448 0,5.28 -3.264,7.776 -9.984,7.776 h -23.04 z"
         style="-inkscape-font-specification:Nasalization;fill:#fefefe;fill-opacity:1"
         id="path43018" />
      <path
         d="m 417.57604,408.0298 v 64.8 h 11.328 v -64.8 z"
         style="-inkscape-font-specification:Nasalization;fill:#fefefe;fill-opacity:1"
         id="path43015" />
      <path
         d="m 449.92787,408.0298 c -3.648,0 -5.376,1.728 -5.376,5.28 v 54.24 c 0,3.552 1.728,5.28 5.376,5.28 h 22.848 c 19.008,0 29.184,-10.56 29.184,-32.352 0,-21.888 -10.272,-32.448 -29.184,-32.448 z m 5.952,12.48 c 0,-0.864 0.384,-1.152 1.248,-1.152 h 15.648 c 12.576,0 17.856,6.24 17.856,21.024 0,14.88 -5.28,21.12 -17.856,21.12 h -15.648 c -0.864,0 -1.248,-0.288 -1.248,-1.152 z"
         style="-inkscape-font-specification:Nasalization;fill:#fefefe;fill-opacity:1"
         id="path43012" />
      <path
         d="m 534.59982,408.0298 c -15.264,0 -21.696,7.296 -21.696,17.664 0,7.104 3.072,12.096 9.12,14.592 -5.952,2.496 -9.312,7.488 -9.312,14.88 0,10.08 6.24,17.664 21.6,17.664 h 32.832 v -11.328 h -32.832 c -6.624,0 -9.792,-3.072 -9.792,-8.16 0,-5.28 3.36,-7.872 9.888,-7.872 h 32.16 v -10.272 h -31.872 c -6.528,0 -9.888,-2.4 -9.888,-7.68 0,-4.992 2.976,-8.16 9.792,-8.16 h 32.448 v -11.328 z"
         style="-inkscape-font-specification:Nasalization;fill:#fefefe;fill-opacity:1"
         id="path43009" />
    </g>
    <g
       aria-label="A"
       id="text939"
       style="font-size:25.4px;font-family:Nasalization;-inkscape-font-specification:Nasalization;fill:url(#linearGradient23953);stroke-width:0.264583">
      <path
         d="m 108.05409,61.226141 c 0.1778,-0.4064 0.4572,-0.5842 0.8636,-0.5842 0.4064,0 0.6858,0.1778 0.8382,0.5842 l 5.20699,13.7922 h 3.3274 l -5.7912,-15.24 c -0.6096,-1.6002 -1.77799,-2.2098 -3.55599,-2.2098 -1.8034,0 -2.9718,0.6096 -3.6068,2.2098 l -6.019805,15.24 h 3.302005 z"
         id="path43030" />
    </g>
  </g>
</svg>
